<?xml version="1.0" encoding="UTF-8" standalone="no"?>
<svg
   width="16"
   height="16"
   viewBox="0 0 16 16"
   fill="none"
   version="1.1"
   id="svg8"
   sodipodi:docname="favicon_yard_sale_circle.svg"
   inkscape:version="1.1.1 (3bf5ae0d25, 2021-09-20)"
   xmlns:inkscape="http://www.inkscape.org/namespaces/inkscape"
   xmlns:sodipodi="http://sodipodi.sourceforge.net/DTD/sodipodi-0.dtd"
   xmlns="http://www.w3.org/2000/svg"
   xmlns:svg="http://www.w3.org/2000/svg">
  <defs
     id="defs12" />
  <sodipodi:namedview
     id="namedview10"
     pagecolor="#ffffff"
     bordercolor="#666666"
     borderopacity="1.0"
     inkscape:pageshadow="2"
     inkscape:pageopacity="0.0"
     inkscape:pagecheckerboard="0"
     showgrid="false"
     inkscape:zoom="22.627417"
     inkscape:cx="1.3479223"
     inkscape:cy="1.3921165"
     inkscape:window-width="1920"
     inkscape:window-height="991"
     inkscape:window-x="-9"
     inkscape:window-y="-9"
     inkscape:window-maximized="1"
     inkscape:current-layer="svg8" />
  <circle
     style="font-variation-settings:normal;opacity:1;vector-effect:none;fill:#ffffff;fill-opacity:1;fill-rule:evenodd;stroke-width:1.18768;stroke-linecap:butt;stroke-linejoin:miter;stroke-miterlimit:4;stroke-dasharray:none;stroke-dashoffset:0;stroke-opacity:1;-inkscape-stroke:none;stop-color:#000000;stop-opacity:1"
     id="path1327"
     cx="8"
     cy="8"
     r="8" />
  <path
     fill-rule="evenodd"
     clip-rule="evenodd"
     d="M 5.3076819,8.4643191 V 12.622063 C 5.3076819,12.830813 5.1355318,13 4.923038,13 H 3.3846448 C 3.1721528,13 2.9999996,12.830813 2.9999996,12.622063 V 5.0625561 c 0,-0.156568 0.098215,-0.296906 0.2470145,-0.352875 0,0 3.3459559,-1.260195 4.3400193,-1.63457 0.265843,-0.100148 0.560025,-0.100148 0.825875,0 0.994032,0.374375 4.3400966,1.63457 4.3400966,1.63457 0.198188,0.07466 0.297437,0.293369 0.221438,0.488132 -0.07594,0.19485 -0.298501,0.292368 -0.496688,0.217712 0,0 -3.3460526,-1.260194 -4.3401096,-1.634569 -0.08861,-0.03339 -0.186643,-0.03339 -0.275262,0 L 3.7692,5.3225441 V 12.244063 H 4.5384878 V 6.5744811 c 0,-0.208731 0.1721501,-0.378006 0.3845502,-0.378006 h 6.153841 c 0.212438,0 0.384688,0.169275 0.384688,0.378006 v 5.6695819 h 0.769188 V 6.5744811 c 0,-0.208643 0.172312,-0.378006 0.384625,-0.378006 0.21225,0 0.384563,0.169363 0.384563,0.378006 V 12.622063 C 12.999943,12.830813 12.827755,13 12.61538,13 h -1.538501 c -0.212375,0 -0.384625,-0.169187 -0.384625,-0.377937 V 8.4643191 Z M 10.692254,7.7084001 V 6.9524811 H 5.3076819 v 0.755919 z"
     fill="#000000"
     id="path2"
     style="stroke-width:0.625" />
  <path
     d="m 6.717732,12.899998 c 0.06797,0 0.1278071,-0.0249 0.1795221,-0.0747 0.05171,-0.04974 0.07757,-0.11166 0.07757,-0.18564 v -1.0401 l 0.9264209,-1.2771 c 0.01182,-0.01704 0.02134,-0.03444 0.02856,-0.05214 l 0.0091,-0.02682 c 0.0074,-0.027 0.0111,-0.05334 0.0111,-0.0789 0,-0.07686 -0.02734,-0.14016 -0.082,-0.189918 C 7.813335,9.92489 7.752013,9.9 7.684048,9.9 7.598348,9.9 7.524477,9.94267 7.46242,10.02804 L 6.731627,11.05734 5.950891,10.01949 C 5.897701,9.95121 5.836913,9.91219 5.76852,9.902434 l -0.03483,-0.0024 c -0.06501,0 -0.128543,0.02418 -0.1906,0.07255 C 5.48103,10.020934 5.45,10.083518 5.45,10.160378 c 0,0.02844 0.0059,0.0597 0.01773,0.09384 0.01182,0.03414 0.03251,0.06972 0.06206,0.10668 l 0.921986,1.17984 v 1.09896 c 0,0.06168 0.01796,0.1149 0.05387,0.15978 l 0.0237,0.02586 c 0.051715,0.0498 0.114512,0.0747 0.18839,0.0747 z"
     fill="#acd9b2"
     id="path4"
     style="stroke-width:0.654653" />
  <path
     d="m 9.332255,12.900036 c 0.21925,0 0.423107,-0.03474 0.611678,-0.10416 0.188642,-0.06948 0.340928,-0.16944 0.456999,-0.3 0.116072,-0.13056 0.174072,-0.28614 0.174072,-0.46668 0,-0.14166 -0.02414,-0.26178 -0.0725,-0.36042 -0.04836,-0.09858 -0.120929,-0.18054 -0.217643,-0.24582 -0.09671,-0.06528 -0.218428,-0.11874 -0.365071,-0.16044 -0.146714,-0.04164 -0.316714,-0.07776 -0.510164,-0.1083 -0.148293,-0.02502 -0.275628,-0.05346 -0.382007,-0.08544 -0.106386,-0.03192 -0.187786,-0.075 -0.2442,-0.12918 -0.05641,-0.05412 -0.08462,-0.12288 -0.08462,-0.20622 0,-0.06948 0.02418,-0.13056 0.07253,-0.18336 0.04836,-0.05274 0.120086,-0.09444 0.2151859,-0.12498 0.0951,-0.03054 0.211964,-0.04584 0.3505781,-0.04584 0.08382,0 0.174058,0.01182 0.270772,0.0354 0.09671,0.02364 0.188643,0.0528 0.275643,0.08754 0.08707,0.03468 0.156356,0.07152 0.207928,0.1104 0.03871,0.02502 0.08221,0.0375 0.13057,0.0375 0.07414,0 0.138643,-0.02502 0.193429,-0.075 0.05479,-0.04998 0.08221,-0.10554 0.08221,-0.16668 0,-0.08334 -0.04679,-0.15696 -0.140214,-0.2208 -0.112854,-0.08334 -0.258711,-0.1521 -0.437639,-0.206268 -0.178928,-0.05417 -0.373142,-0.08125 -0.5826999,-0.08125 -0.2224351,0 -0.4255281,0.03334 -0.6092781,0.100002 -0.183757,0.06668 -0.329629,0.163878 -0.437622,0.291678 -0.108,0.12774 -0.161992,0.28194 -0.161992,0.46248 0,0.11946 0.02256,0.2271 0.0677,0.32292 0.04513,0.09582 0.112021,0.17916 0.200671,0.25002 0.08866,0.0708 0.199064,0.12918 0.331243,0.17496 0.132171,0.04584 0.2853,0.07986 0.459378,0.10212 0.18375,0.0222 0.335243,0.05346 0.454529,0.09372 0.119286,0.04032 0.207929,0.08958 0.266,0.14796 0.058,0.05832 0.087,0.12912 0.087,0.21246 0,0.06948 -0.03064,0.13128 -0.09186,0.18546 -0.06129,0.05412 -0.141857,0.0972 -0.241786,0.12912 -0.09993,0.03198 -0.2095421,0.04794 -0.3288209,0.04794 -0.1773001,0 -0.3264001,-0.0222 -0.4472861,-0.06666 -0.120893,-0.04446 -0.242585,-0.10974 -0.365093,-0.19584 -0.04835,-0.03336 -0.103157,-0.04998 -0.164407,-0.04998 -0.08059,0 -0.147485,0.0243 -0.200678,0.0729 -0.05319,0.0486 -0.07979,0.10488 -0.07979,0.16872 0,0.03888 0.01129,0.07782 0.03385,0.1167 0.02256,0.03888 0.0548,0.07362 0.09671,0.10416 0.164407,0.12222 0.336878,0.20766 0.517407,0.25626 0.180529,0.0486 0.383622,0.0729 0.6092791,0.0729 z"
     fill="#000000"
     id="path6"
     style="stroke-width:0.654653" />
</svg>
